<svg width="17" height="17" viewBox="0 0 17 17" fill="none" xmlns="http://www.w3.org/2000/svg">
<path d="M16.852 3.73926C16.6994 1.93882 15.0604 0.299747 13.2611 0.148162C10.0809 -0.0493874 6.92023 -0.0493874 3.74005 0.148162C1.9397 0.299747 0.30071 1.93882 0.148155 3.73926C-0.0493848 6.91962 -0.0493848 10.0804 0.148155 13.2608C0.30071 15.0612 1.93872 16.7003 3.73907 16.8519C6.91926 17.0494 10.0799 17.0494 13.2601 16.8519C15.0604 16.6993 16.6994 15.0612 16.851 13.2608C17.0495 10.0804 17.0495 6.91962 16.852 3.73926ZM8.26292 14.6876C7.4444 14.6876 6.76475 14.007 6.76475 13.1737C6.76475 12.3405 7.44538 11.652 8.26292 11.652C9.11957 11.652 9.8002 12.3405 9.8002 13.1737C9.8002 14.007 9.11957 14.6876 8.26292 14.6876ZM10.8172 8.65845C10.2393 9.08386 9.65449 9.59045 9.44131 10.2936C9.38165 10.4912 9.19487 10.6242 8.98755 10.6242H7.48938C7.23219 10.6242 7.01705 10.4188 7.01705 10.1626C7.01705 10.1606 7.01705 10.1596 7.01705 10.1577C7.01705 7.90932 9.9684 7.52694 9.9684 5.7842C9.9684 4.95879 9.2731 4.5764 8.53086 4.5764C7.52948 4.5764 6.90948 5.35682 6.90948 6.3123V6.31817C6.90948 6.62134 6.65131 6.85996 6.34913 6.83551L4.9556 6.72207C4.70818 6.70153 4.50869 6.50496 4.49109 6.25753C4.48326 6.14409 4.47837 6.02967 4.47837 5.91622C4.47837 3.6532 6.43616 2.31534 8.55336 2.31534C10.5111 2.31534 12.5217 3.52313 12.5217 5.66488C12.5217 6.96167 11.8264 7.91715 10.8172 8.65845Z" fill="#C4C4C4"/>
</svg>
