<svg width="17" height="17" viewBox="0 0 17 17" fill="none" xmlns="http://www.w3.org/2000/svg">
<path d="M16.9756 7.71629C16.9505 7.42 16.681 7.15042 16.3846 7.12538C16.1042 7.10785 15.2679 7.0995 14.4724 7.10117C14.3189 6.44182 14.0593 5.82337 13.7121 5.265C14.2755 4.7033 14.8606 4.10655 15.0467 3.89622C15.2387 3.66921 15.2387 3.28779 15.0467 3.06077C14.6995 2.66766 14.3322 2.30043 13.9391 1.95322C13.7121 1.76126 13.3306 1.76126 13.1036 1.95322C12.8924 2.13935 12.2965 2.72442 11.7347 3.28779C11.1763 2.94058 10.5579 2.68101 9.89848 2.52744C9.90015 1.73205 9.8918 0.896593 9.87427 0.615325C9.84923 0.319034 9.57964 0.0494514 9.28333 0.0244127C8.76 -0.00813757 8.24 -0.00813757 7.71667 0.0244127C7.42036 0.0494514 7.15077 0.319034 7.12573 0.615325C7.1082 0.895758 7.09985 1.73205 7.10152 2.52744C6.44214 2.68101 5.82365 2.94058 5.26526 3.28779C4.70354 2.72442 4.10675 2.13935 3.89642 1.95322C3.66939 1.76126 3.28795 1.76126 3.06092 1.95322C2.66779 2.30043 2.30054 2.66766 1.95332 3.06077C1.76135 3.28779 1.76135 3.66921 1.95332 3.89622C2.13945 4.10738 2.72455 4.7033 3.28795 5.265C2.94073 5.82337 2.68115 6.44182 2.52757 7.10117C1.73213 7.10034 0.896637 7.10785 0.615355 7.12538C0.31905 7.15042 0.0494538 7.42 0.0244139 7.71629C-0.00813797 8.2396 -0.00813797 8.75957 0.0244139 9.28288C0.0494538 9.57917 0.31905 9.84875 0.615355 9.87379C0.895802 9.89131 1.73213 9.89966 2.52757 9.89799C2.68115 10.5573 2.94073 11.1758 3.28795 11.735C2.72455 12.2967 2.13945 12.8934 1.95332 13.1038C1.76135 13.3308 1.76135 13.7122 1.95332 13.9392C2.30054 14.3323 2.66779 14.6996 3.06092 15.0468C3.28795 15.2387 3.66939 15.2387 3.89642 15.0468C4.10759 14.8607 4.70354 14.2756 5.26526 13.7122C5.82365 14.0594 6.44214 14.319 7.10152 14.4726C7.09985 15.268 7.1082 16.1034 7.12573 16.3847C7.15077 16.681 7.42036 16.9505 7.71667 16.9756C8.24 17.0081 8.76 17.0081 9.28333 16.9756C9.57964 16.9505 9.84923 16.681 9.87427 16.3847C9.8918 16.1042 9.90015 15.268 9.89848 14.4726C10.5579 14.319 11.1763 14.0594 11.7347 13.7122C12.2965 14.2756 12.8932 14.8607 13.1036 15.0468C13.3306 15.2387 13.7121 15.2387 13.9391 15.0468C14.3322 14.6996 14.6995 14.3323 15.0467 13.9392C15.2387 13.7122 15.2387 13.3308 15.0467 13.1038C14.8606 12.8926 14.2755 12.2967 13.7121 11.735C14.0593 11.1766 14.3189 10.5582 14.4724 9.89799C15.2679 9.89966 16.1034 9.89131 16.3846 9.87379C16.681 9.84875 16.9505 9.57917 16.9756 9.28288C17.0081 8.75957 17.0081 8.2396 16.9756 7.71629ZM8.49958 12.1723C6.47135 12.1723 4.82623 10.5281 4.82623 8.49917C4.82623 6.4702 6.47052 4.82599 8.49958 4.82599C10.5286 4.82599 12.1729 6.4702 12.1729 8.49917C12.1729 10.5281 10.5278 12.1723 8.49958 12.1723Z" fill="#C4C4C4"/>
</svg>
