<svg width="152" height="29" viewBox="0 0 152 29" fill="none" xmlns="http://www.w3.org/2000/svg">
<path d="M7.42777 5.97852C11.8425 5.97852 14.0072 8.22414 14.0072 12.2791V20.4755C14.0072 21.2924 13.7445 21.5837 12.8962 21.5837H9.67914C8.8602 21.5837 8.56813 21.2924 8.56813 20.4755V12.4826C8.56813 11.4037 7.98401 10.8782 6.81429 10.8782C6.28741 10.8782 5.85005 10.9075 5.52717 10.9953C5.46846 11.0246 5.43911 11.0539 5.43911 11.1124V20.4755C5.43911 21.2924 5.1764 21.5837 4.3281 21.5837H1.11101C0.262709 21.5837 0 21.2924 0 20.4755V8.80823C0 7.84645 0.233356 7.43802 1.19907 7.05887C3.07032 6.32839 5.14704 5.97852 7.42777 5.97852Z" fill="#404040"/>
<path d="M15.3223 12.367C15.3223 8.37053 17.8951 5.97998 22.5739 5.97998C27.2821 5.97998 29.8256 8.31344 29.8256 12.367V15.6329C29.8256 19.6865 27.2821 22.0199 22.5739 22.0199C17.8951 22.0199 15.3223 19.6279 15.3223 15.6329V12.367ZM24.4173 12.2206C24.4173 11.171 23.8038 10.6454 22.5754 10.6454C21.3763 10.6454 20.7628 11.171 20.7628 12.2206V15.7793C20.7628 16.7997 21.3763 17.3252 22.5754 17.3252C23.8038 17.3252 24.4173 16.7997 24.4173 15.7793V12.2206Z" fill="#404040"/>
<path d="M44.0369 6.41626C44.8852 6.41626 45.1479 6.70758 45.1479 7.52443V19.1917C45.1479 20.1535 44.9145 20.5619 43.9488 20.9411C42.1069 21.6701 40.0302 22.02 37.7201 22.02C33.3054 22.02 31.1406 19.7743 31.1406 15.7193V7.52443C31.1406 6.70758 31.4033 6.41626 32.2516 6.41626H35.4687C36.317 6.41626 36.5797 6.70758 36.5797 7.52443V15.5159C36.5797 16.5948 37.1639 17.1203 38.3336 17.1203C38.7137 17.1203 39.1232 17.091 39.5033 17.0032C39.6501 16.9739 39.7073 16.8861 39.7073 16.7411V7.52443C39.7073 6.70758 39.9994 6.41626 40.8183 6.41626H44.0369Z" fill="#404040"/>
<path d="M49.1253 0C49.5054 0 49.6522 0.14639 49.6522 0.52554V6.97109C50.8513 6.41627 52.4011 6.15423 54.243 6.15423C58.1323 6.15423 60.0622 8.04998 60.0622 11.8708V21.0582C60.0622 21.4081 59.8861 21.5837 59.5353 21.5837H58.599C58.2482 21.5837 58.0721 21.4081 58.0721 21.0582V11.9293C58.0721 9.27526 56.6984 7.96215 53.9788 7.96215C52.225 7.96215 50.7911 8.25346 49.6507 8.80828V21.0582C49.6507 21.4373 49.504 21.5837 49.1238 21.5837H48.2168C47.778 21.5837 47.6899 21.4373 47.6899 21.0582V0.52554C47.6899 0.14639 47.778 0 48.2168 0H49.1253Z" fill="#404040"/>
<path d="M68.7182 6.1543C73.0463 6.1543 74.5668 8.39992 74.5668 11.9294V19.5709C74.5668 20.5913 74.3335 20.884 73.5145 21.2339C72.3448 21.7302 70.7363 21.9922 68.661 21.9922C66.2335 21.9922 64.5971 21.6423 63.6901 20.884C62.7831 20.155 62.3442 19.0176 62.3442 17.4717C62.3442 14.1765 64.1274 12.9512 68.7769 12.9512C69.5665 12.9512 70.8537 13.039 72.6075 13.2425V11.9016C72.6075 9.36463 71.6139 7.90512 68.6595 7.90512C66.7296 7.90512 65.3559 8.60486 64.5663 10.0336C64.3623 10.3249 64.0981 10.4128 63.8354 10.2664L63.1338 9.97507C62.7537 9.82868 62.6657 9.59592 62.8418 9.21677C63.922 7.17463 65.8813 6.1543 68.7182 6.1543ZM72.606 14.8455C70.8522 14.6698 69.5064 14.5834 68.57 14.5834C65.4997 14.5834 64.3593 15.4296 64.3593 17.4424C64.3593 19.426 65.2663 20.3585 68.5113 20.3585C70.0024 20.3585 71.1722 20.2121 72.0498 19.8915C72.518 19.688 72.606 19.6002 72.606 19.0454V14.8455V14.8455Z" fill="#404040"/>
<path d="M89.3034 6.59204C89.6542 6.59204 89.8303 6.76771 89.8303 7.11758V19.426C89.8303 20.3307 89.6263 20.6513 88.7193 21.0305C87.1694 21.6717 85.3275 21.9937 83.2508 21.9937C79.3909 21.9937 77.4609 20.098 77.4609 16.3065V7.11612C77.4609 6.73697 77.6077 6.59058 77.9878 6.59058H78.8948C79.3337 6.59058 79.4217 6.73697 79.4217 7.11612V16.2157C79.4217 18.8698 80.7954 20.2122 83.515 20.2122C84.9768 20.2122 86.2345 20.0087 87.3162 19.571C87.667 19.4246 87.8431 19.1333 87.8431 18.7541V7.11612C87.8431 6.76624 88.0192 6.59058 88.37 6.59058H89.3034V6.59204Z" fill="#404040"/>
<path d="M105.591 6.1541C109.655 6.1541 111.673 8.10841 111.673 11.9877V16.1877C111.673 20.067 109.685 21.992 105.68 21.992C104.422 21.992 102.96 21.6714 101.293 21.001V27.4758C101.293 27.8257 101.117 28.0013 100.766 28.0013H99.8295C99.4787 28.0013 99.3026 27.8257 99.3026 27.4758V8.63249C99.3026 7.69852 99.536 7.37792 100.472 6.99877C101.906 6.44542 103.603 6.1541 105.591 6.1541ZM109.714 12.0463C109.714 9.33369 108.252 7.96348 105.357 7.96348C104.04 7.96348 102.87 8.13915 101.848 8.5183C101.35 8.72178 101.291 8.8389 101.291 9.30588V19.1931C102.724 19.8635 104.128 20.2134 105.531 20.2134C108.31 20.2134 109.713 18.8432 109.713 16.1306V12.0463H109.714ZM121.733 6.1541C122.083 6.1541 122.26 6.32977 122.26 6.67964V7.43794C122.26 7.78782 122.083 7.96348 121.733 7.96348H120.768C119.307 7.96348 118.02 8.16697 116.909 8.57539C116.587 8.72178 116.411 8.95454 116.411 9.33369V21.0581C116.411 21.4079 116.235 21.5836 115.884 21.5836H114.948C114.597 21.5836 114.421 21.4079 114.421 21.0581V8.69104C114.421 7.78635 114.684 7.43648 115.532 7.05733C117.023 6.50251 118.777 6.18192 120.824 6.15264H121.733V6.1541ZM122.726 11.5208C122.726 8.16697 125.154 6.1541 129.13 6.1541C133.136 6.1541 135.592 8.16697 135.592 11.5208V16.6547C135.592 20.0084 133.135 21.992 129.13 21.992C125.152 21.992 122.726 19.9499 122.726 16.6547V11.5208ZM133.604 11.5208C133.604 9.30441 131.908 7.93274 129.131 7.93274C126.412 7.93274 124.687 9.30295 124.687 11.5208V16.6547C124.687 18.871 126.441 20.2134 129.131 20.2134C131.909 20.2134 133.604 18.8725 133.604 16.6547V11.5208ZM142.149 9.13899C142.676 9.7348 144.96 12.0361 146.727 13.7766C144.96 15.5172 142.677 17.8185 142.149 18.4143C141.704 18.9398 141.721 19.8079 142.149 20.3451C142.23 20.4476 142.946 21.162 143.128 21.3216C143.643 21.7768 144.538 21.7651 145.064 21.3216C145.807 20.6672 149.198 17.3002 150.86 15.5889C151.187 15.3123 151.35 15.141 151.67 14.753C151.89 14.4852 152.001 14.1309 152 13.7766C152 13.7371 151.999 13.6976 151.996 13.6581C151.996 13.6566 151.996 13.6551 151.996 13.6537C151.974 13.3418 151.865 13.0374 151.67 12.8017C151.351 12.4152 151.188 12.2439 150.86 11.9658C149.198 10.2545 145.807 6.88752 145.064 6.23315C144.537 5.78959 143.667 5.8057 143.128 6.23315C143.025 6.31367 142.309 7.02805 142.149 7.20958C141.693 7.72194 141.704 8.61345 142.149 9.13899ZM95.067 19.3292C95.8624 19.3292 96.1178 19.5986 96.1178 20.392V20.9424C96.1178 21.7358 95.861 21.9906 95.067 21.9906H94.5548C93.7461 21.9906 93.4907 21.7344 93.4907 20.9424V20.392C93.4907 19.5986 93.7476 19.3292 94.5548 19.3292H95.067Z" fill="url(#paint0_linear)"/>
<defs>
<linearGradient id="paint0_linear" x1="93.49" y1="16.9524" x2="151.999" y2="16.9524" gradientUnits="userSpaceOnUse">
<stop stop-color="#10DCAB"/>
<stop offset="1" stop-color="#D8E92F"/>
</linearGradient>
</defs>
</svg>
