<svg width="20" height="14" viewBox="0 0 20 14" fill="none" xmlns="http://www.w3.org/2000/svg">
<path d="M15.7125 1.47142C16.5342 1.42001 16.8443 1.42001 17.6659 1.47142C18.1312 1.51083 18.5544 1.93407 18.5938 2.39929C18.6452 3.22092 18.6452 3.53107 18.5938 4.3527C18.5544 4.81792 18.1312 5.24116 17.6659 5.28057C16.8443 5.33197 16.5342 5.33197 15.7125 5.28057C15.2473 5.24116 14.8241 4.81792 14.7846 4.3527C14.7332 3.53107 14.7332 3.22092 14.7846 2.39929C14.8241 1.93407 15.2473 1.51083 15.7125 1.47142Z" fill="#C4C4C4"/>
<path d="M2.33362 1.47142C3.15525 1.42001 3.4654 1.42001 4.28704 1.47142C4.75226 1.51083 5.1755 1.93407 5.21491 2.39929C5.26632 3.22092 5.26632 3.53107 5.21491 4.3527C5.1755 4.81792 4.75226 5.24116 4.28704 5.28057C3.4654 5.33197 3.15525 5.33197 2.33362 5.28057C1.86839 5.24116 1.44515 4.81792 1.40574 4.3527C1.35434 3.53107 1.35434 3.22092 1.40574 2.39929C1.44515 1.93407 1.86925 1.51083 2.33362 1.47142Z" fill="#C4C4C4"/>
<path d="M8.60201 0.0552613C9.78435 -0.0184204 10.2307 -0.0184204 11.4131 0.0552613C12.0822 0.111808 12.6913 0.720967 12.7479 1.3901C12.8216 2.57244 12.8216 3.01881 12.7479 4.20115C12.6913 4.87028 12.0822 5.47944 11.4131 5.53599C10.2316 5.60967 9.78435 5.60967 8.60201 5.53599C7.93288 5.47944 7.32372 4.87028 7.26718 4.20115C7.19349 3.01881 7.19349 2.57244 7.26718 1.3901C7.32372 0.720967 7.93288 0.111808 8.60201 0.0552613Z" fill="#C4C4C4"/>
<path d="M13.6051 13.7369C14.2383 13.7369 14.7541 13.2288 14.7644 12.5957C14.7832 11.4048 14.7566 10.2156 14.6821 9.02212C14.5904 7.94174 13.6077 6.95903 12.5273 6.86736C10.6193 6.74913 9.39587 6.74913 7.48785 6.86736C6.40747 6.95903 5.42391 7.94174 5.33224 9.02212C5.2577 10.2164 5.23114 11.4056 5.24999 12.5957C5.26027 13.2288 5.77604 13.7369 6.40919 13.7369H13.6051V13.7369Z" fill="#C4C4C4"/>
<path d="M19.9389 7.70348C19.8755 6.95296 19.1918 6.26925 18.4412 6.20585C17.115 6.1236 16.8648 6.1236 15.5385 6.20585C15.3406 6.22299 15.1478 6.28211 14.9696 6.37549C14.6655 6.534 14.6184 6.94267 14.866 7.17914C15.3646 7.65465 15.7056 8.29723 15.7638 8.98093L15.7647 8.99121C15.7955 9.48985 15.8178 9.99277 15.8324 10.4957C15.8401 10.7647 16.0586 10.9789 16.3276 10.9789H19.1918C19.6304 10.9789 19.9903 10.6276 19.9971 10.189C20.0091 9.36219 19.9903 8.53369 19.9389 7.70348Z" fill="#C4C4C4"/>
<path d="M4.35026 8.99208L4.35112 8.98094C4.40852 8.29895 4.7478 7.65808 5.24473 7.18257C5.49147 6.94611 5.44264 6.53999 5.14106 6.38063C4.96028 6.28468 4.76322 6.22299 4.56189 6.20585C3.23561 6.1236 2.8852 6.1236 1.55893 6.20585C0.808402 6.26925 0.124704 6.9521 0.0613036 7.70349C0.00989778 8.53456 -0.00895103 9.36221 0.00390043 10.1907C0.0107545 10.6294 0.370595 10.9807 0.809259 10.9807H3.78737C4.05639 10.9807 4.27487 10.7656 4.28258 10.4974C4.29714 9.99279 4.31942 9.49072 4.35026 8.99208Z" fill="#C4C4C4"/>
</svg>
