<svg width="16" height="16" viewBox="0 0 16 16" fill="none" xmlns="http://www.w3.org/2000/svg">
<path d="M1.58453 0.0630667C2.93196 -0.0208595 4.27111 -0.0208595 5.61937 0.0630667C6.38187 0.12705 7.07633 0.822556 7.14105 1.58703C7.22485 2.9365 7.22485 4.27765 7.14105 5.62795C7.07633 6.39159 6.38187 7.0871 5.61937 7.15191C4.27194 7.23584 2.93279 7.23584 1.58453 7.15191C0.821199 7.0871 0.126737 6.39159 0.06285 5.62712C-0.02095 4.27765 -0.02095 2.93567 0.06285 1.5862C0.126737 0.822556 0.821199 0.12705 1.58453 0.0630667Z" fill="#C4C4C4"/>
<path d="M10.3814 0.0629448C11.7288 -0.0209816 13.068 -0.0209816 14.4162 0.0629448C15.1787 0.127759 15.8732 0.823268 15.9379 1.58691C16.0217 2.93638 16.0217 4.27754 15.9379 5.62785C15.8732 6.39149 15.1787 7.087 14.4162 7.15182C13.0688 7.23574 11.7297 7.23574 10.3814 7.15182C9.6189 7.087 8.92444 6.39149 8.85972 5.62785C8.77593 4.27838 8.77593 2.93638 8.85972 1.58691C8.92444 0.822437 9.6189 0.126928 10.3814 0.0629448Z" fill="#C4C4C4"/>
<path d="M1.58453 8.84859C2.93196 8.76466 4.27111 8.76466 5.61937 8.84859C6.38187 8.9134 7.07633 9.60891 7.14105 10.3726C7.22485 11.722 7.22485 13.0632 7.14105 14.4135C7.07633 15.1771 6.38187 15.8726 5.61937 15.9375C4.27194 16.0214 2.93279 16.0214 1.58453 15.9375C0.822029 15.8726 0.127567 15.1771 0.06285 14.4135C-0.02095 13.064 -0.02095 11.722 0.06285 10.3726C0.126737 9.60808 0.821199 8.91257 1.58453 8.84859Z" fill="#C4C4C4"/>
<path d="M10.3814 8.84859C11.7288 8.76466 13.068 8.76466 14.4162 8.84859C15.1787 8.9134 15.8732 9.60891 15.9379 10.3726C16.0217 11.722 16.0217 13.0632 15.9379 14.4135C15.8732 15.1771 15.1787 15.8726 14.4162 15.9375C13.0688 16.0214 11.7297 16.0214 10.3814 15.9375C9.6189 15.8726 8.92444 15.1771 8.85972 14.4135C8.77593 13.064 8.77593 11.722 8.85972 10.3726C8.92444 9.60808 9.6189 8.91257 10.3814 8.84859Z" fill="#C4C4C4"/>
</svg>
