<svg width="16" height="14" viewBox="0 0 16 14" fill="none" xmlns="http://www.w3.org/2000/svg">
<path d="M15.9512 5.00493C15.9434 3.98513 15.9146 2.99734 15.8659 2.21108C15.7753 1.1463 14.799 0.177535 13.7269 0.0875782C11.8335 -0.0291927 4.12144 -0.0291927 2.22718 0.0875782C1.15507 0.17667 0.178758 1.1463 0.0881813 2.21108C-0.0293938 4.09239 -0.0293938 7.11892 0.0881813 9.00022C0.178758 10.065 1.15507 11.0338 2.2263 11.1237C3.84536 11.2232 9.89045 11.2379 12.7436 11.167C13.7669 12.3779 14.9 13.4929 14.9 13.4929C15.9234 14.5066 16 13.8224 16 12.9921C16 12.9921 15.9826 4.98244 15.9512 5.00493Z" fill="#C4C4C4"/>
</svg>
