<svg width="9" height="6" viewBox="0 0 9 6" fill="none" xmlns="http://www.w3.org/2000/svg">
<path d="M7.15265 0.19238C6.81253 0.492669 5.49785 1.79407 4.50314 2.80114C3.50844 1.79407 2.19376 0.493127 1.85364 0.192838C1.55381 -0.0603021 1.05714 -0.0516047 0.750445 0.192838C0.691395 0.239072 0.283532 0.646934 0.192439 0.750387C-0.0675679 1.04427 -0.0607015 1.55375 0.192439 1.85358C0.566427 2.27701 2.48992 4.20966 3.46815 5.15631C3.62654 5.34307 3.7245 5.436 3.94605 5.61818C4.09894 5.74407 4.30173 5.80678 4.5036 5.80632C4.52603 5.80632 4.54846 5.80541 4.57089 5.80403C4.57181 5.80403 4.57272 5.80403 4.57364 5.80403C4.75171 5.79122 4.92565 5.72942 5.06024 5.61818C5.28133 5.43645 5.37929 5.34353 5.53768 5.15676C6.51545 4.21012 8.4394 2.27701 8.81339 1.85358C9.06653 1.55375 9.05783 1.05708 8.81339 0.750387C8.76716 0.692252 8.35884 0.283932 8.25584 0.192838C7.96196 -0.0676262 7.45248 -0.0607599 7.15265 0.19238Z" fill="#404040"/>
</svg>
